<?xml version="1.0" standalone="no"?>
<!DOCTYPE svg PUBLIC "-//W3C//DTD SVG 20010904//EN"
 "http://www.w3.org/TR/2001/REC-SVG-20010904/DTD/svg10.dtd">
<svg version="1.0" xmlns="http://www.w3.org/2000/svg"
 width="200.000000pt" height="200.000000pt" viewBox="0 0 200.000000 200.000000"
 preserveAspectRatio="xMidYMid meet">

<g transform="translate(0.000000,200.000000) scale(0.100000,-0.100000)"
fill="#000000" stroke="none">
<path d="M823 1985 c-294 -53 -553 -246 -690 -515 -42 -83 -80 -186 -71 -195
3 -3 19 -10 36 -14 31 -9 31 -9 48 42 93 285 325 504 621 589 105 30 322 32
428 4 253 -67 466 -240 584 -476 55 -109 77 -180 60 -191 -8 -5 -20 -9 -26 -9
-7 0 -13 -3 -13 -7 1 -11 111 -165 115 -161 2 2 21 45 43 96 l41 92 -33 0
c-33 0 -33 1 -69 101 -160 453 -618 727 -1074 644z"/>
<path d="M894 1736 c-237 -77 -305 -390 -122 -562 67 -63 126 -87 214 -88 125
-1 236 71 296 193 32 65 33 205 1 273 -31 68 -104 142 -166 168 -63 28 -166
35 -223 16z m165 -82 c140 -41 212 -216 143 -350 -97 -188 -355 -176 -437 19
-19 45 -20 147 -1 191 29 69 99 129 171 147 47 11 68 10 124 -7z"/>
<path d="M683 1009 c-79 -25 -161 -97 -200 -177 -28 -56 -28 -61 -31 -264 l-3
-208 40 0 40 0 3 203 c3 223 8 242 71 307 65 67 81 70 386 70 258 0 277 -1
317 -21 24 -11 57 -37 75 -56 57 -66 63 -89 67 -305 l4 -198 40 0 40 0 -4 198
c-6 221 -13 253 -76 337 -44 58 -123 109 -194 124 -27 6 -153 11 -281 10 -202
0 -240 -3 -294 -20z"/>
<path d="M27 810 l-25 -102 27 5 c25 5 28 2 56 -74 87 -235 254 -421 480 -534
132 -66 234 -94 375 -102 422 -22 811 244 957 656 20 56 34 104 31 107 -3 2
-21 7 -40 10 -33 6 -34 6 -47 -45 -15 -61 -79 -194 -123 -259 -46 -68 -154
-178 -223 -227 -330 -235 -760 -217 -1075 46 -111 93 -221 253 -270 393 l-19
57 30 6 c16 3 31 9 34 13 2 3 -29 39 -69 79 l-73 73 -26 -102z"/>
</g>
</svg>
